<?xml version="1.0" encoding="UTF-8"?> <!-- Generator: Adobe Illustrator 15.1.0, SVG Export Plug-In . SVG Version: 6.00 Build 0) --> <svg xmlns="http://www.w3.org/2000/svg" xmlns:xlink="http://www.w3.org/1999/xlink" id="Layer_1" x="0px" y="0px" width="374px" height="133px" viewBox="0 0 374 133" xml:space="preserve"> <g> <path fill="#005596" d="M124.43,60.208h-15.377c0,1.711,0.193,3.201,0.58,4.473c0.386,1.269,0.915,2.313,1.587,3.126 c0.648,0.799,1.417,1.397,2.308,1.797c0.89,0.398,1.872,0.598,2.942,0.598c1.42,0,2.85-0.378,4.288-1.134 c1.439-0.758,2.463-1.501,3.074-2.233h0.187v5.114c-1.184,0.664-2.392,1.221-3.625,1.669c-1.233,0.448-2.529,0.672-3.887,0.672 c-3.462,0-6.166-1.249-8.108-3.752c-1.943-2.502-2.915-6.052-2.915-10.653c0-4.549,0.931-8.162,2.793-10.836 c1.862-2.673,4.313-4.011,7.352-4.011c2.815,0,4.986,1.096,6.512,3.288s2.289,5.307,2.289,9.342V60.208z M121.011,56.621 c-0.012-2.457-0.476-4.359-1.392-5.705c-0.915-1.345-2.307-2.018-4.175-2.018c-1.881,0-3.379,0.739-4.494,2.217 c-1.115,1.479-1.747,3.313-1.896,5.505H121.011z"></path> <path fill="#005596" d="M132.611,41.15h-3.961v-4.858h3.961V41.15z M132.387,73.642h-3.513V45.809h3.513V73.642z"></path> <path fill="#005596" d="M155.346,70.477c0,4.718-0.804,8.181-2.411,10.39c-1.606,2.207-4.079,3.313-7.417,3.313 c-1.108,0-2.188-0.104-3.241-0.312s-2.09-0.504-3.111-0.885V78.2h0.187c0.572,0.299,1.482,0.669,2.727,1.108 c1.246,0.44,2.491,0.66,3.737,0.66c1.196,0,2.187-0.191,2.971-0.572c0.785-0.383,1.395-0.914,1.831-1.595 c0.436-0.647,0.748-1.429,0.934-2.342c0.187-0.914,0.28-1.934,0.28-3.064v-2.543c-1.059,1.132-2.071,1.975-3.036,2.53 c-0.965,0.557-2.195,0.835-3.69,0.835c-2.492,0-4.469-1.199-5.932-3.602c-1.464-2.404-2.195-5.787-2.195-10.156 c0-2.391,0.252-4.455,0.756-6.19c0.504-1.736,1.193-3.234,2.065-4.498c0.81-1.179,1.793-2.096,2.952-2.753 c1.159-0.655,2.311-0.983,3.457-0.983c1.208,0,2.221,0.162,3.036,0.485c0.815,0.325,1.679,0.82,2.588,1.483l0.225-1.196h3.288 V70.477z M151.833,65.987V50.816c-0.935-0.564-1.803-0.968-2.606-1.209c-0.804-0.239-1.604-0.36-2.4-0.36 c-1.931,0-3.451,0.864-4.559,2.59c-1.109,1.729-1.664,4.235-1.664,7.523c0,3.124,0.411,5.49,1.233,7.1 c0.822,1.613,2.186,2.419,4.092,2.419c1.021,0,2.045-0.261,3.073-0.786C150.03,67.57,150.974,66.868,151.833,65.987z"></path> <path fill="#005596" d="M178.791,73.642h-3.512v-15.85c0-1.278-0.057-2.479-0.168-3.601c-0.113-1.12-0.319-1.996-0.617-2.627 c-0.312-0.698-0.76-1.217-1.346-1.558c-0.584-0.34-1.345-0.51-2.279-0.51c-0.959,0-1.961,0.316-3.008,0.947 c-1.047,0.632-2.049,1.437-3.008,2.416v20.783h-3.513V34.873h3.513v14.025c1.096-1.211,2.229-2.158,3.401-2.84 c1.17-0.681,2.373-1.021,3.605-1.021c2.255,0,3.974,0.906,5.157,2.715c1.184,1.811,1.775,4.418,1.775,7.822V73.642z"></path> <path fill="#005596" d="M203.001,59.51c0,2.326-0.244,4.419-0.738,6.278c-0.492,1.861-1.154,3.426-1.989,4.688 c-0.885,1.313-1.855,2.297-2.914,2.952c-1.06,0.657-2.223,0.985-3.494,0.985c-1.185,0-2.217-0.188-3.103-0.56 c-0.884-0.375-1.756-0.877-2.615-1.509l-0.225,1.296h-3.286V34.873h3.511v13.851c0.984-1.079,2.031-1.964,3.139-2.654 c1.109-0.688,2.355-1.033,3.737-1.033c2.466,0,4.413,1.263,5.84,3.787C202.288,51.348,203.001,54.911,203.001,59.51z M199.377,59.635c0-3.321-0.411-5.842-1.232-7.56c-0.822-1.72-2.149-2.579-3.979-2.579c-1.021,0-2.057,0.295-3.103,0.885 c-1.046,0.588-2.018,1.349-2.915,2.279v15.946c0.996,0.599,1.854,1.015,2.57,1.247c0.715,0.234,1.529,0.349,2.437,0.349 c1.943,0,3.466-0.852,4.57-2.558C198.826,65.942,199.377,63.272,199.377,59.635z"></path> <path fill="#005596" d="M225.345,59.734c0,4.534-0.872,8.115-2.616,10.742c-1.744,2.626-4.078,3.938-7.005,3.938 c-2.953,0-5.297-1.312-7.036-3.938c-1.738-2.627-2.606-6.208-2.606-10.742c0-4.534,0.868-8.117,2.606-10.749 c1.739-2.633,4.083-3.949,7.036-3.949c2.927,0,5.261,1.316,7.005,3.949C224.473,51.617,225.345,55.201,225.345,59.734z M221.722,59.734c0-3.603-0.53-6.281-1.59-8.035c-1.06-1.751-2.528-2.627-4.408-2.627c-1.906,0-3.385,0.876-4.439,2.627 c-1.052,1.753-1.578,4.432-1.578,8.035c0,3.488,0.529,6.132,1.588,7.936c1.061,1.804,2.534,2.707,4.43,2.707 c1.866,0,3.333-0.895,4.398-2.683C221.188,65.909,221.722,63.256,221.722,59.734z"></path> <path fill="#005596" d="M242.885,50.916h-0.186c-0.523-0.166-1.03-0.286-1.522-0.362c-0.493-0.073-1.074-0.111-1.747-0.111 c-1.083,0-2.13,0.319-3.139,0.958c-1.01,0.639-1.981,1.467-2.915,2.479v19.761h-3.514V45.809h3.514v4.111 c1.395-1.495,2.625-2.554,3.69-3.175c1.065-0.624,2.151-0.936,3.26-0.936c0.611,0,1.053,0.021,1.326,0.062 c0.274,0.042,0.686,0.122,1.232,0.237V50.916z"></path> <path fill="#005596" d="M281.106,73.642h-4.801L267,58.887h-5.212v14.754h-3.7v-37.1h7.791c1.682,0,3.083,0.146,4.203,0.437 c1.123,0.29,2.131,0.809,3.027,1.556c1.009,0.847,1.796,1.915,2.364,3.201c0.566,1.287,0.85,2.92,0.85,4.896 c0,2.675-0.505,4.912-1.513,6.713c-1.01,1.803-2.398,3.161-4.167,4.074L281.106,73.642z M272.455,46.98 c0-1.063-0.14-2.006-0.419-2.827c-0.28-0.823-0.745-1.516-1.393-2.081c-0.537-0.481-1.17-0.818-1.906-1.008 c-0.734-0.192-1.6-0.287-2.597-0.287h-4.353v14h3.737c1.17,0,2.19-0.138,3.063-0.411c0.872-0.275,1.613-0.786,2.224-1.533 c0.561-0.698,0.975-1.499,1.243-2.403C272.322,49.524,272.455,48.375,272.455,46.98z"></path> <path fill="#005596" d="M287.271,41.15h-3.962v-4.858h3.962V41.15z M287.046,73.642h-3.513V45.809h3.513V73.642z"></path> <path fill="#005596" d="M310.005,73.642h-3.512v-2.916c-1.01,1.164-2.063,2.069-3.157,2.717c-1.098,0.647-2.287,0.972-3.569,0.972 c-2.491,0-4.469-1.278-5.933-3.839c-1.463-2.56-2.194-6.107-2.194-10.641c0-2.357,0.251-4.459,0.756-6.303 c0.504-1.843,1.187-3.414,2.045-4.708c0.848-1.261,1.835-2.225,2.963-2.89c1.127-0.663,2.294-0.996,3.503-0.996 c1.097,0,2.068,0.153,2.914,0.461c0.848,0.307,1.737,0.784,2.673,1.432V34.873h3.512V73.642z M306.493,66.785V50.816 c-0.946-0.564-1.794-0.955-2.542-1.171c-0.747-0.215-1.563-0.324-2.447-0.324c-1.968,0-3.5,0.914-4.596,2.74 c-1.097,1.828-1.645,4.419-1.645,7.772c0,3.306,0.423,5.816,1.271,7.537c0.846,1.72,2.204,2.581,4.072,2.581 c0.997,0,2.005-0.295,3.027-0.885C304.654,68.477,305.608,67.716,306.493,66.785z"></path> <path fill="#005596" d="M333.47,60.208h-15.378c0,1.711,0.193,3.201,0.581,4.473c0.385,1.269,0.914,2.313,1.587,3.126 c0.648,0.799,1.417,1.397,2.308,1.797c0.891,0.398,1.871,0.598,2.943,0.598c1.419,0,2.85-0.378,4.287-1.134 c1.439-0.758,2.463-1.501,3.074-2.233h0.186v5.114c-1.182,0.664-2.392,1.221-3.624,1.669c-1.231,0.448-2.528,0.672-3.886,0.672 c-3.462,0-6.166-1.249-8.107-3.752c-1.943-2.502-2.917-6.052-2.917-10.653c0-4.549,0.933-8.162,2.794-10.836 c1.862-2.673,4.313-4.011,7.352-4.011c2.815,0,4.987,1.096,6.512,3.288c1.525,2.192,2.289,5.307,2.289,9.342V60.208z M330.051,56.621c-0.013-2.457-0.477-4.359-1.392-5.705c-0.917-1.345-2.308-2.018-4.177-2.018c-1.88,0-3.378,0.739-4.492,2.217 c-1.116,1.479-1.748,3.313-1.898,5.505H330.051z"></path> </g> <g> <path fill="#005596" d="M32.648,87.348l-4.485,19.523H24.61l-4.485-19.523h3.333l2.972,13.706l2.973-13.706H32.648z"></path> <path fill="#005596" d="M44.207,99.516c0,2.422-0.446,4.329-1.334,5.723c-0.889,1.395-2.139,2.093-3.746,2.093 c-1.608,0-2.857-0.698-3.746-2.093c-0.89-1.394-1.334-3.301-1.334-5.723c0-2.438,0.447-4.353,1.342-5.743 c0.895-1.389,2.141-2.084,3.738-2.084c1.619,0,2.871,0.698,3.754,2.098C43.765,95.186,44.207,97.095,44.207,99.516z M40.547,103.095c0.193-0.375,0.337-0.828,0.433-1.356c0.097-0.528,0.145-1.262,0.145-2.196c0-0.866-0.05-1.591-0.148-2.177 c-0.099-0.586-0.237-1.053-0.413-1.402c-0.176-0.358-0.389-0.612-0.636-0.761c-0.248-0.148-0.516-0.223-0.802-0.223 s-0.541,0.062-0.764,0.184c-0.223,0.121-0.437,0.367-0.64,0.733c-0.182,0.342-0.327,0.809-0.434,1.403 c-0.107,0.594-0.161,1.341-0.161,2.242c0,0.804,0.046,1.502,0.14,2.091c0.094,0.591,0.231,1.065,0.413,1.423 c0.176,0.341,0.387,0.59,0.632,0.748c0.245,0.157,0.524,0.235,0.838,0.235c0.27,0,0.527-0.071,0.772-0.216 C40.168,103.679,40.377,103.437,40.547,103.095z"></path> <path fill="#005596" d="M49.793,106.871h-2.982V86.47h2.982V106.871z"></path> <path fill="#005596" d="M62.31,106.871h-2.981v-1.626c-0.55,0.666-1.053,1.17-1.51,1.515c-0.456,0.345-1.001,0.519-1.634,0.519 c-1.022,0-1.811-0.469-2.363-1.404c-0.552-0.934-0.828-2.316-0.828-4.143v-9.585h2.981v7.303c0,0.744,0.016,1.362,0.046,1.856 c0.031,0.494,0.101,0.901,0.211,1.226c0.104,0.323,0.263,0.561,0.474,0.708c0.213,0.148,0.508,0.223,0.889,0.223 c0.253,0,0.534-0.074,0.842-0.223c0.309-0.147,0.606-0.367,0.893-0.655V92.146h2.981V106.871z"></path> <path fill="#005596" d="M74.91,106.871h-2.982v-7.303c0-0.595-0.019-1.188-0.058-1.776c-0.039-0.591-0.104-1.026-0.198-1.305 c-0.11-0.324-0.271-0.561-0.483-0.708c-0.212-0.149-0.508-0.223-0.888-0.223c-0.27,0-0.544,0.069-0.822,0.209 s-0.579,0.363-0.904,0.669v10.437h-2.982V92.146h2.982v1.626c0.528-0.655,1.036-1.157,1.522-1.508 c0.487-0.35,1.027-0.524,1.621-0.524c1.001,0,1.783,0.463,2.347,1.391c0.564,0.926,0.845,2.311,0.845,4.156V106.871z"></path> <path fill="#005596" d="M84.048,106.741c-0.319,0.131-0.658,0.233-1.016,0.308c-0.358,0.074-0.795,0.111-1.313,0.111 c-1.156,0-2.017-0.371-2.582-1.115c-0.564-0.743-0.846-2.015-0.846-3.814v-6.885h-1.223v-3.199h1.223v-4.208h2.982v4.208h2.775 v3.199h-2.775v5.227c0,0.517,0.002,0.968,0.008,1.353c0.005,0.385,0.049,0.73,0.131,1.038c0.077,0.308,0.213,0.55,0.408,0.729 c0.194,0.179,0.479,0.269,0.852,0.269c0.154,0,0.355-0.053,0.605-0.157c0.25-0.105,0.424-0.201,0.523-0.289h0.247V106.741z"></path> <path fill="#005596" d="M95.435,100.382h-6.807c0.044,1.153,0.32,2.035,0.831,2.648c0.509,0.611,1.26,0.917,2.25,0.917 c0.628,0,1.237-0.18,1.826-0.537c0.589-0.358,1.054-0.744,1.396-1.153h0.33v3.788c-0.671,0.429-1.305,0.738-1.9,0.932 c-0.594,0.192-1.252,0.288-1.974,0.288c-1.861,0-3.288-0.664-4.279-1.993c-0.991-1.328-1.487-3.221-1.487-5.678 c0-2.429,0.469-4.354,1.408-5.774c0.938-1.42,2.227-2.131,3.862-2.131c1.509,0,2.644,0.605,3.403,1.815 c0.76,1.211,1.14,2.952,1.14,5.226V100.382z M92.477,97.614c-0.017-0.987-0.171-1.73-0.463-2.229 c-0.292-0.498-0.746-0.747-1.363-0.747c-0.573,0-1.043,0.235-1.412,0.707c-0.369,0.473-0.576,1.229-0.62,2.269H92.477z"></path> <path fill="#005596" d="M107.142,100.382h-6.807c0.044,1.153,0.321,2.035,0.831,2.648c0.509,0.611,1.26,0.917,2.251,0.917 c0.628,0,1.236-0.18,1.826-0.537c0.589-0.358,1.054-0.744,1.396-1.153h0.33v3.788c-0.671,0.429-1.305,0.738-1.899,0.932 c-0.594,0.192-1.253,0.288-1.974,0.288c-1.862,0-3.288-0.664-4.279-1.993c-0.992-1.328-1.487-3.221-1.487-5.678 c0-2.429,0.469-4.354,1.408-5.774s2.227-2.131,3.862-2.131c1.508,0,2.643,0.605,3.403,1.815c0.76,1.211,1.14,2.952,1.14,5.226 V100.382z M104.184,97.614c-0.017-0.987-0.171-1.73-0.462-2.229c-0.292-0.498-0.747-0.747-1.363-0.747 c-0.574,0-1.044,0.235-1.413,0.707c-0.369,0.473-0.575,1.229-0.62,2.269H104.184z"></path> <path fill="#005596" d="M116.437,96.644h-0.263c-0.126-0.069-0.33-0.121-0.61-0.156c-0.28-0.035-0.514-0.053-0.701-0.053 c-0.423,0-0.796,0.043-1.121,0.131s-0.674,0.236-1.047,0.446v9.859h-2.982V92.146h2.982v2.164c0.654-0.892,1.223-1.484,1.706-1.777 c0.483-0.292,0.928-0.438,1.335-0.438c0.104,0,0.222,0.004,0.354,0.014c0.132,0.009,0.248,0.021,0.346,0.038V96.644z"></path> <path fill="#005596" d="M126.658,102.204c0,1.52-0.43,2.746-1.289,3.677c-0.858,0.931-2.035,1.397-3.527,1.397 c-0.826,0-1.575-0.123-2.246-0.367c-0.672-0.246-1.212-0.516-1.62-0.813v-3.881h0.273c0.148,0.166,0.32,0.348,0.516,0.544 c0.195,0.196,0.472,0.409,0.831,0.636c0.308,0.201,0.658,0.374,1.049,0.518c0.391,0.145,0.81,0.217,1.255,0.217 c0.583,0,1.016-0.102,1.296-0.308c0.282-0.206,0.421-0.509,0.421-0.911c0-0.358-0.082-0.619-0.247-0.781 c-0.166-0.161-0.479-0.317-0.943-0.465c-0.22-0.079-0.518-0.164-0.896-0.256c-0.377-0.091-0.719-0.203-1.028-0.334 c-0.843-0.35-1.467-0.894-1.875-1.632c-0.407-0.738-0.611-1.659-0.611-2.761c0-1.416,0.422-2.594,1.268-3.533 c0.845-0.94,2-1.41,3.465-1.41c0.693,0,1.358,0.111,1.995,0.335c0.636,0.223,1.132,0.462,1.491,0.714v3.724h-0.257 c-0.44-0.48-0.943-0.871-1.507-1.173c-0.564-0.302-1.136-0.452-1.715-0.452c-0.479,0-0.882,0.104-1.21,0.314 c-0.327,0.21-0.491,0.508-0.491,0.892c0,0.35,0.074,0.616,0.223,0.8c0.148,0.184,0.498,0.367,1.048,0.551 c0.303,0.095,0.629,0.189,0.979,0.281c0.35,0.093,0.701,0.207,1.053,0.348c0.782,0.324,1.359,0.833,1.734,1.527 C126.47,100.296,126.658,101.164,126.658,102.204z"></path> <path fill="#005596" d="M147.148,97.13c0,1.818-0.261,3.445-0.784,4.884c-0.523,1.438-1.184,2.541-1.982,3.31 c-0.601,0.577-1.259,0.98-1.975,1.207c-0.716,0.227-1.564,0.341-2.545,0.341h-4.336V87.348h4.461c1.001,0,1.867,0.135,2.593,0.4 c0.728,0.267,1.339,0.646,1.834,1.135c0.848,0.821,1.516,1.93,2.004,3.323C146.905,93.6,147.148,95.241,147.148,97.13z M143.869,97.09c0-1.284-0.147-2.384-0.441-3.297c-0.295-0.915-0.762-1.629-1.4-2.145c-0.326-0.253-0.657-0.426-0.996-0.518 c-0.338-0.091-0.849-0.138-1.533-0.138h-0.801v12.22h0.801c0.756,0,1.309-0.055,1.661-0.163c0.352-0.109,0.696-0.309,1.032-0.597 c0.579-0.524,1.001-1.227,1.272-2.104C143.734,99.47,143.869,98.385,143.869,97.09z"></path> <path fill="#005596" d="M156.601,96.644h-0.264c-0.126-0.069-0.329-0.121-0.609-0.156c-0.281-0.035-0.514-0.053-0.7-0.053 c-0.424,0-0.797,0.043-1.121,0.131c-0.326,0.088-0.674,0.236-1.048,0.446v9.859h-2.981V92.146h2.981v2.164 c0.655-0.892,1.224-1.484,1.706-1.777c0.484-0.292,0.93-0.438,1.336-0.438c0.104,0,0.223,0.004,0.354,0.014 c0.132,0.009,0.248,0.021,0.346,0.038V96.644z"></path> <path fill="#005596" d="M161.825,90.05h-3.147v-3.58h3.147V90.05z M161.742,106.871h-2.981V92.146h2.981V106.871z"></path> <path fill="#005596" d="M174.357,92.146l-3.577,14.725h-3.37l-3.552-14.725h3.14l2.153,10.136l2.125-10.136H174.357z"></path> <path fill="#005596" d="M185.621,100.382h-6.807c0.043,1.153,0.32,2.035,0.83,2.648c0.509,0.611,1.26,0.917,2.251,0.917 c0.627,0,1.235-0.18,1.825-0.537c0.589-0.358,1.055-0.744,1.396-1.153h0.331v3.788c-0.672,0.429-1.306,0.738-1.9,0.932 c-0.595,0.192-1.252,0.288-1.974,0.288c-1.862,0-3.289-0.664-4.28-1.993c-0.991-1.328-1.487-3.221-1.487-5.678 c0-2.429,0.47-4.354,1.41-5.774c0.939-1.42,2.226-2.131,3.861-2.131c1.51,0,2.643,0.605,3.403,1.815 c0.76,1.211,1.141,2.952,1.141,5.226V100.382z M182.662,97.614c-0.015-0.987-0.169-1.73-0.461-2.229 c-0.292-0.498-0.747-0.747-1.364-0.747c-0.572,0-1.043,0.235-1.412,0.707c-0.37,0.473-0.576,1.229-0.62,2.269H182.662z"></path> <path fill="#005596" d="M200.253,100.08h-6.303v-3.776h6.303V100.08z"></path> <path fill="#005596" d="M219.307,100.735c0,1.923-0.514,3.484-1.54,4.688c-1.028,1.202-2.422,1.802-4.184,1.802 c-1.02,0-1.908-0.141-2.664-0.426c-0.758-0.284-1.467-0.645-2.128-1.081v-4.681h0.347c0.656,0.829,1.39,1.469,2.202,1.914 s1.593,0.668,2.341,0.668c0.192,0,0.446-0.026,0.761-0.078c0.313-0.053,0.57-0.14,0.769-0.262c0.242-0.158,0.441-0.355,0.599-0.591 s0.235-0.586,0.235-1.049c0-0.429-0.115-0.798-0.343-1.108c-0.229-0.311-0.563-0.547-1.004-0.714 c-0.463-0.174-0.95-0.338-1.466-0.492c-0.516-0.153-0.998-0.347-1.45-0.583c-1.034-0.534-1.779-1.256-2.234-2.17 c-0.453-0.913-0.682-2.048-0.682-3.403c0-1.817,0.514-3.301,1.54-4.45c1.029-1.15,2.349-1.725,3.962-1.725 c0.81,0,1.609,0.125,2.399,0.374c0.791,0.249,1.475,0.561,2.053,0.938v4.497h-0.338c-0.496-0.63-1.103-1.156-1.823-1.58 c-0.718-0.423-1.451-0.636-2.201-0.636c-0.263,0-0.526,0.028-0.787,0.085c-0.263,0.056-0.515,0.164-0.757,0.321 c-0.214,0.131-0.399,0.331-0.554,0.598c-0.154,0.266-0.231,0.569-0.231,0.911c0,0.514,0.124,0.911,0.372,1.187 c0.247,0.275,0.716,0.526,1.404,0.753c0.451,0.147,0.885,0.292,1.302,0.433c0.416,0.141,0.863,0.332,1.341,0.578 c0.943,0.487,1.639,1.155,2.087,1.998C219.082,98.294,219.307,99.388,219.307,100.735z"></path> <path fill="#005596" d="M230.924,100.382h-6.807c0.043,1.153,0.321,2.035,0.831,2.648c0.508,0.611,1.259,0.917,2.251,0.917 c0.626,0,1.234-0.18,1.825-0.537c0.588-0.358,1.054-0.744,1.395-1.153h0.33v3.788c-0.671,0.429-1.304,0.738-1.897,0.932 c-0.597,0.192-1.254,0.288-1.976,0.288c-1.861,0-3.288-0.664-4.278-1.993c-0.992-1.328-1.487-3.221-1.487-5.678 c0-2.429,0.469-4.354,1.409-5.774c0.938-1.42,2.225-2.131,3.86-2.131c1.51,0,2.645,0.605,3.403,1.815 c0.761,1.211,1.141,2.952,1.141,5.226V100.382z M227.966,97.614c-0.016-0.987-0.17-1.73-0.462-2.229s-0.747-0.747-1.362-0.747 c-0.574,0-1.045,0.235-1.413,0.707c-0.37,0.473-0.576,1.229-0.62,2.269H227.966z"></path> <path fill="#005596" d="M242.813,106.871h-2.982v-7.303c0-0.595-0.02-1.188-0.057-1.776c-0.039-0.591-0.106-1.026-0.198-1.305 c-0.11-0.324-0.271-0.561-0.484-0.708c-0.211-0.149-0.508-0.223-0.888-0.223c-0.27,0-0.544,0.069-0.822,0.209 c-0.277,0.14-0.579,0.363-0.904,0.669v10.437h-2.981V92.146h2.981v1.626c0.528-0.655,1.036-1.157,1.521-1.508 c0.487-0.35,1.027-0.524,1.622-0.524c1.001,0,1.782,0.463,2.347,1.391c0.563,0.926,0.846,2.311,0.846,4.156V106.871z"></path> <path fill="#005596" d="M249.084,90.05h-3.146v-3.58h3.146V90.05z M249.002,106.871h-2.981V92.146h2.981V106.871z"></path> <path fill="#005596" d="M261.759,99.516c0,2.422-0.445,4.329-1.334,5.723c-0.89,1.395-2.139,2.093-3.746,2.093 c-1.609,0-2.857-0.698-3.745-2.093c-0.89-1.394-1.336-3.301-1.336-5.723c0-2.438,0.449-4.353,1.344-5.743 c0.896-1.389,2.14-2.084,3.737-2.084c1.619,0,2.87,0.698,3.753,2.098C261.315,95.186,261.759,97.095,261.759,99.516z M258.099,103.095c0.193-0.375,0.338-0.828,0.435-1.356s0.146-1.262,0.146-2.196c0-0.866-0.05-1.591-0.15-2.177 c-0.099-0.586-0.236-1.053-0.413-1.402c-0.175-0.358-0.388-0.612-0.636-0.761s-0.516-0.223-0.801-0.223 c-0.287,0-0.542,0.062-0.765,0.184c-0.223,0.121-0.437,0.367-0.64,0.733c-0.182,0.342-0.326,0.809-0.435,1.403 c-0.106,0.594-0.16,1.341-0.16,2.242c0,0.804,0.047,1.502,0.14,2.091c0.095,0.591,0.232,1.065,0.413,1.423 c0.178,0.341,0.387,0.59,0.632,0.748c0.245,0.157,0.524,0.235,0.839,0.235c0.271,0,0.527-0.071,0.772-0.216 S257.928,103.437,258.099,103.095z"></path> <path fill="#005596" d="M271.087,96.644h-0.264c-0.126-0.069-0.329-0.121-0.609-0.156c-0.281-0.035-0.515-0.053-0.701-0.053 c-0.423,0-0.796,0.043-1.12,0.131c-0.325,0.088-0.674,0.236-1.048,0.446v9.859h-2.98V92.146h2.98v2.164 c0.654-0.892,1.223-1.484,1.706-1.777c0.483-0.292,0.93-0.438,1.336-0.438c0.104,0,0.223,0.004,0.354,0.014 c0.133,0.009,0.248,0.021,0.347,0.038V96.644z"></path> <path fill="#005596" d="M281.309,102.204c0,1.52-0.43,2.746-1.289,3.677c-0.858,0.931-2.035,1.397-3.526,1.397 c-0.826,0-1.575-0.123-2.247-0.367c-0.673-0.246-1.212-0.516-1.62-0.813v-3.881h0.272c0.149,0.166,0.321,0.348,0.517,0.544 c0.196,0.196,0.473,0.409,0.831,0.636c0.307,0.201,0.657,0.374,1.048,0.518c0.393,0.145,0.811,0.217,1.256,0.217 c0.584,0,1.018-0.102,1.297-0.308c0.281-0.206,0.421-0.509,0.421-0.911c0-0.358-0.082-0.619-0.248-0.781 c-0.165-0.161-0.478-0.317-0.94-0.465c-0.221-0.079-0.52-0.164-0.896-0.256c-0.378-0.091-0.722-0.203-1.03-0.334 c-0.842-0.35-1.466-0.894-1.874-1.632c-0.407-0.738-0.611-1.659-0.611-2.761c0-1.416,0.422-2.594,1.269-3.533 c0.846-0.94,2-1.41,3.464-1.41c0.694,0,1.358,0.111,1.995,0.335c0.636,0.223,1.133,0.462,1.491,0.714v3.724h-0.256 c-0.44-0.48-0.943-0.871-1.508-1.173s-1.135-0.452-1.714-0.452c-0.479,0-0.882,0.104-1.21,0.314 c-0.329,0.21-0.492,0.508-0.492,0.892c0,0.35,0.075,0.616,0.223,0.8c0.15,0.184,0.499,0.367,1.05,0.551 c0.304,0.095,0.63,0.189,0.979,0.281c0.351,0.093,0.702,0.207,1.054,0.348c0.783,0.324,1.36,0.833,1.734,1.527 C281.121,100.296,281.309,101.164,281.309,102.204z"></path> <path fill="#005596" d="M299.8,91.124h-3.841v15.747h-3.172V91.124h-3.841v-3.776H299.8V91.124z"></path> <path fill="#005596" d="M311.334,106.871h-2.981v-7.303c0-0.595-0.02-1.188-0.059-1.776c-0.037-0.591-0.104-1.026-0.197-1.305 c-0.111-0.324-0.271-0.561-0.484-0.708c-0.211-0.149-0.507-0.223-0.887-0.223c-0.271,0-0.545,0.069-0.823,0.209 c-0.277,0.14-0.579,0.363-0.904,0.669v10.437h-2.981V86.47h2.981v7.303c0.528-0.655,1.035-1.157,1.522-1.508 c0.487-0.35,1.026-0.524,1.62-0.524c1.002,0,1.784,0.463,2.347,1.391c0.564,0.926,0.847,2.311,0.847,4.156V106.871z"></path> <path fill="#005596" d="M321.266,96.644h-0.264c-0.126-0.069-0.329-0.121-0.609-0.156c-0.281-0.035-0.515-0.053-0.701-0.053 c-0.423,0-0.796,0.043-1.12,0.131c-0.325,0.088-0.674,0.236-1.048,0.446v9.859h-2.981V92.146h2.981v2.164 c0.654-0.892,1.223-1.484,1.706-1.777c0.484-0.292,0.93-0.438,1.336-0.438c0.104,0,0.223,0.004,0.354,0.014 c0.133,0.009,0.248,0.021,0.347,0.038V96.644z"></path> <path fill="#005596" d="M326.489,90.05h-3.146v-3.58h3.146V90.05z M326.406,106.871h-2.981V92.146h2.981V106.871z"></path> <path fill="#005596" d="M339.022,92.146l-3.577,14.725h-3.369l-3.553-14.725h3.141l2.153,10.136l2.125-10.136H339.022z"></path> <path fill="#005596" d="M350.284,100.382h-6.807c0.044,1.153,0.32,2.035,0.83,2.648c0.508,0.611,1.26,0.917,2.251,0.917 c0.627,0,1.235-0.18,1.825-0.537c0.589-0.358,1.055-0.744,1.395-1.153h0.331v3.788c-0.671,0.429-1.305,0.738-1.898,0.932 c-0.595,0.192-1.254,0.288-1.976,0.288c-1.861,0-3.288-0.664-4.278-1.993c-0.991-1.328-1.487-3.221-1.487-5.678 c0-2.429,0.47-4.354,1.41-5.774c0.938-1.42,2.225-2.131,3.861-2.131c1.508,0,2.643,0.605,3.402,1.815 c0.76,1.211,1.141,2.952,1.141,5.226V100.382z M347.325,97.614c-0.016-0.987-0.17-1.73-0.462-2.229 c-0.291-0.498-0.746-0.747-1.362-0.747c-0.573,0-1.044,0.235-1.412,0.707c-0.37,0.473-0.576,1.229-0.62,2.269H347.325z"></path> </g> <path fill="none" stroke="#005596" stroke-width="2.6852" d="M339.131,46.783c13.348,0,24.167,10.82,24.167,24.172v24.839 c0,13.348-10.819,24.168-24.167,24.168H32.346c-13.347,0-24.167-10.82-24.167-24.168V70.955c0-13.352,10.82-24.172,24.167-24.172"></path> <g> <path fill="#005596" d="M372.198,110.484c0,1.253-0.443,2.321-1.33,3.207c-0.887,0.887-1.954,1.33-3.207,1.33 c-1.252,0-2.32-0.443-3.206-1.33c-0.887-0.886-1.33-1.954-1.33-3.207c0-1.252,0.443-2.32,1.33-3.206 c0.886-0.887,1.954-1.33,3.206-1.33c1.253,0,2.32,0.443,3.207,1.33C371.755,108.164,372.198,109.232,372.198,110.484z M371.59,110.484c0-1.084-0.384-2.014-1.151-2.79c-0.768-0.775-1.692-1.164-2.777-1.164c-1.083,0-2.01,0.389-2.776,1.164 c-0.767,0.776-1.151,1.706-1.151,2.79s0.385,2.015,1.151,2.791c0.767,0.775,1.693,1.163,2.776,1.163 c1.085,0,2.01-0.388,2.777-1.163C371.206,112.499,371.59,111.568,371.59,110.484z M370.583,112.793h-1.17l-1.736-1.862h-0.849 v1.862h-0.866v-4.799h1.637c0.328,0,0.6,0.014,0.813,0.042c0.214,0.027,0.423,0.096,0.629,0.203c0.22,0.12,0.381,0.265,0.484,0.434 s0.155,0.381,0.155,0.638c0,0.339-0.098,0.621-0.296,0.846c-0.198,0.227-0.47,0.405-0.815,0.538L370.583,112.793z M368.737,109.368 c0-0.126-0.025-0.237-0.074-0.337c-0.049-0.098-0.131-0.178-0.246-0.241c-0.108-0.058-0.225-0.098-0.347-0.115 c-0.121-0.017-0.276-0.025-0.462-0.025h-0.78v1.62h0.666c0.216,0,0.403-0.018,0.561-0.049c0.158-0.033,0.288-0.092,0.388-0.171 c0.109-0.088,0.186-0.185,0.229-0.289C368.715,109.656,368.737,109.525,368.737,109.368z"></path> </g> <g> <g> <g> <polygon fill="#005596" points="61.969,42.708 61.969,73.532 81.456,73.532 "></polygon> </g> </g> <g> <g> <path fill="#005596" d="M91.803,7.653H49.962c-5.338,0-9.667,4.328-9.667,9.667V63.86c0,5.343,4.329,9.672,9.667,9.672h1.153 V28.624h14.153l16.744,25.724V42.05h10.854v31.42c4.838-0.529,8.604-4.628,8.604-9.61V17.32 C101.47,11.98,97.142,7.653,91.803,7.653z M58.042,26.362c-4.687,0-8.485-3.799-8.485-8.484c0-4.686,3.798-8.485,8.485-8.485 c4.685,0,8.484,3.799,8.484,8.485C66.525,22.563,62.727,26.362,58.042,26.362z M87.23,38.857c-3.869,0-7.005-3.137-7.005-7.005 c0-3.87,3.136-7.006,7.005-7.006c3.868,0,7.005,3.136,7.005,7.006C94.235,35.72,91.099,38.857,87.23,38.857z"></path> </g> </g> </g> </svg> 